<svg width="2280" height="618" viewBox="0 0 2280 618" fill="none" xmlns="http://www.w3.org/2000/svg">
<path fill-rule="evenodd" clip-rule="evenodd" d="M0 0H475.77V497.066H0V0Z" fill="#D46F3D"/>
<path fill-rule="evenodd" clip-rule="evenodd" d="M710.095 287.592C674.596 287.592 639.085 298.24 610.681 315.995V497.066H497.053V177.53H610.681V237.891H614.222C635.531 198.84 674.583 170.436 710.082 170.436V287.592H710.095ZM891.165 411.855C876.964 422.503 862.762 429.598 845.006 429.598C827.25 429.598 820.143 418.949 820.143 401.194C820.143 372.803 841.452 355.034 891.152 351.494V411.855H891.165ZM1011.89 497.066C1004.78 479.324 1004.78 450.907 1004.78 418.962V291.145C1004.78 202.38 955.08 170.423 869.869 170.423C798.86 170.423 749.147 191.719 717.202 223.677L766.915 284.038C795.319 266.282 820.169 255.634 848.573 255.634C880.53 255.634 891.178 262.729 891.178 287.592V291.145C784.671 298.24 706.554 333.751 706.554 415.409C706.554 475.77 749.16 504.174 798.873 504.174C837.925 504.174 866.328 489.972 891.178 468.675C891.178 479.324 894.719 486.418 898.273 497.066H1011.89ZM1033.2 49.7131H1146.81V145.573H1033.2V49.7131ZM1033.2 177.53H1146.81V497.066H1033.2V177.53ZM1359.83 497.066V284.038C1359.83 269.836 1352.73 262.729 1342.1 262.729C1327.88 262.729 1313.68 269.836 1295.94 284.038V497.066H1178.76V177.53H1295.94V216.582C1331.42 188.178 1363.39 170.423 1402.43 170.423C1452.16 170.423 1473.47 198.827 1473.47 252.08V497.066H1359.83ZM1505.4 49.7131H1619.02V145.573H1505.4V49.7131ZM1505.4 177.53H1619.02V497.066H1505.4V177.53ZM1832.06 497.066V284.038C1832.06 269.836 1824.94 262.729 1814.3 262.729C1800.09 262.729 1785.91 269.836 1768.14 284.038V497.066H1650.99V177.53H1768.14V216.582C1803.65 188.178 1835.6 170.423 1874.66 170.423C1924.36 170.423 1945.67 198.827 1945.67 252.08V497.066H1832.06Z" fill="white"/>
<path fill-rule="evenodd" clip-rule="evenodd" d="M2133.82 284.038C2133.82 315.995 2123.19 330.197 2098.34 330.197C2077.03 330.197 2066.37 315.995 2066.37 284.038C2066.37 252.08 2077.03 234.325 2098.34 234.325C2123.19 234.325 2133.82 252.08 2133.82 284.038ZM2279.41 255.634V170.423C2251.02 170.423 2226.17 184.625 2204.86 205.921C2180.01 184.612 2140.94 170.423 2098.34 170.423C2023.76 170.423 1959.87 209.475 1959.87 284.038C1959.87 326.644 1981.18 358.601 2016.67 376.344C1981.18 394.099 1963.43 415.409 1963.43 447.366C1963.43 461.568 1970.52 472.216 1981.18 482.864C1949.21 497.066 1931.46 521.929 1931.46 546.779C1931.46 596.48 1988.28 617.789 2098.34 617.789C2204.86 617.789 2275.87 589.398 2275.87 514.835C2275.87 458.027 2226.17 429.624 2130.28 422.529L2077.04 418.975C2062.83 415.435 2052.19 415.435 2052.19 404.774C2052.19 397.666 2055.73 394.125 2059.29 390.572C2069.95 394.112 2084.14 394.112 2098.35 394.112C2176.44 394.112 2240.36 358.614 2240.36 284.051C2240.36 273.403 2236.82 266.295 2236.82 259.201C2247.47 255.634 2261.65 255.634 2279.41 255.634V255.634ZM2190.65 536.118C2190.65 546.766 2176.43 557.428 2116.09 557.428C2052.18 557.428 2034.42 546.779 2034.42 525.47C2034.42 518.363 2034.42 514.822 2037.97 507.715C2048.63 511.268 2059.27 511.268 2073.48 514.822L2123.18 518.363C2183.55 521.929 2190.65 525.47 2190.65 536.118ZM621.33 536.118C624.883 536.118 624.883 532.565 624.883 532.565C624.883 532.565 624.883 529.024 621.33 529.024L617.776 532.565L621.33 536.118ZM1157.45 536.118L1153.91 532.565L1157.45 529.024C1160.99 529.024 1160.99 532.565 1160.99 532.565C1160.99 532.565 1161 536.118 1157.45 536.118ZM411.855 497.066C344.386 497.066 301.793 468.675 301.793 394.112V259.188H266.282V177.53H301.793V74.5632H415.409V177.53H475.77V259.188H415.409V379.91C415.409 404.76 429.61 411.868 447.366 411.868H475.77V497.066H411.855V497.066Z" fill="white"/>
</svg>
